<?xml version="1.0" encoding="UTF-8"?>
<svg xmlns="http://www.w3.org/2000/svg"
     xmlns:dc="http://purl.org/dc/elements/1.1/"
     viewBox="0 0 1200 1200" width="1200" height="1200">

  <metadata>
    <dc:title>Jevons Paradox</dc:title>
    <dc:creator>Christophe Heubès</dc:creator>
    <dc:rights>CC BY-NC-SA 4.0 — christophe.heubes.com</dc:rights>
    <dc:description>When a resource becomes more efficient to use, its total consumption increases rather than decreases.</dc:description>
    <dc:subject>Economics &amp; Incentives, concept, illustration, christophe.heubes.com</dc:subject>
    <dc:date>2026-06-03</dc:date>
  </metadata>

  <!-- Fond -->
  <rect width="1200" height="1200" fill="#0D1B2A"/>

  <!-- Header -->
  <text x="60" y="58"
        font-family="'Ubuntu', 'Helvetica Neue', Arial, sans-serif" font-weight="500" font-size="26"
        fill="#8A9BB0" letter-spacing="2">ECONOMICS &amp; INCENTIVES</text>
  <!-- Séparateur header -->
  <line x1="60" y1="78" x2="1140" y2="78"
        stroke="#8A9BB0" stroke-width="1.5" opacity="0.5"/>

  <!-- Zone principale -->
  <g transform="translate(0,0)">

    <defs>
      <marker id="axArr" markerWidth="10" markerHeight="7" refX="9" refY="3.5" orient="auto">
        <polygon points="0 0, 10 3.5, 0 7" fill="#8A9BB0"/>
      </marker>
      <clipPath id="cz">
        <rect x="300" y="135" width="810" height="765"/>
      </clipPath>
    </defs>
    <line x1="300" y1="900" x2="1110" y2="900"
          stroke="#8A9BB0" stroke-width="3" marker-end="url(#axArr)"/>
    <line x1="300" y1="900" x2="300" y2="135"
          stroke="#8A9BB0" stroke-width="3" marker-end="url(#axArr)"/>
    <text x="286" y="121" text-anchor="middle"
          font-family="'Ubuntu', 'Helvetica Neue', Arial, sans-serif" font-weight="700" font-size="44" font-style="italic"
          fill="#F0EDE4">p</text>
    <text x="1134" y="914" text-anchor="start"
          font-family="'Ubuntu', 'Helvetica Neue', Arial, sans-serif" font-weight="700" font-size="44" font-style="italic"
          fill="#F0EDE4">Q</text>
    <path d="M 350,46 L 362,141 L 370,189 L 380,240 L 390,278 L 400,314 L 415,358 L 430,393 L 450,430 L 475,469 L 500,498 L 540,536 L 580,566 L 630,594 L 700,624 L 750,641 L 800,656 L 860,670 L 950,688 L 1050,704 L 1100,711"
          clip-path="url(#cz)"
          fill="none" stroke="#C9A84C" stroke-width="6"
          stroke-linecap="round" stroke-linejoin="round"/>
    <line x1="300" y1="430" x2="450" y2="430"
          stroke="#8A9BB0" stroke-width="2" stroke-dasharray="10,6" opacity="0.65"/>
    <line x1="300" y1="670" x2="860" y2="670"
          stroke="#8A9BB0" stroke-width="2" stroke-dasharray="10,6" opacity="0.65"/>
    <line x1="450" y1="430" x2="450" y2="900"
          stroke="#8A9BB0" stroke-width="2" stroke-dasharray="10,6" opacity="0.65"/>
    <line x1="860" y1="670" x2="860" y2="900"
          stroke="#8A9BB0" stroke-width="2" stroke-dasharray="10,6" opacity="0.65"/>
    <circle cx="450" cy="430" r="10" fill="#C9A84C"/>
    <circle cx="860" cy="670" r="10" fill="#C9A84C"/>
    <line x1="287" y1="430" x2="313" y2="430"
          stroke="#F0EDE4" stroke-width="2.5"/>
    <line x1="287" y1="670" x2="313" y2="670"
          stroke="#F0EDE4" stroke-width="2.5"/>
    <line x1="450" y1="887" x2="450" y2="913"
          stroke="#F0EDE4" stroke-width="2.5"/>
    <line x1="860" y1="887" x2="860" y2="913"
          stroke="#F0EDE4" stroke-width="2.5"/>
    <text x="274" y="535" text-anchor="end"
          font-family="'Ubuntu', 'Helvetica Neue', Arial, sans-serif" font-weight="400" font-size="23"
          fill="#F0EDE4">price drops</text>
    <text x="274" y="567" text-anchor="end"
          font-family="'Ubuntu', 'Helvetica Neue', Arial, sans-serif" font-weight="700" font-size="23"
          fill="#C9A84C">by half</text>
    <text x="655" y="944" text-anchor="middle"
          font-family="'Ubuntu', 'Helvetica Neue', Arial, sans-serif" font-weight="400" font-size="23"
          fill="#F0EDE4">demand increases</text>
    <text x="655" y="976" text-anchor="middle"
          font-family="'Ubuntu', 'Helvetica Neue', Arial, sans-serif" font-weight="700" font-size="23"
          fill="#C9A84C">by more than half</text>
    <text x="878" y="655" text-anchor="start"
          font-family="'Ubuntu', 'Helvetica Neue', Arial, sans-serif" font-weight="400" font-size="27" font-style="italic"
          fill="#E8D5A3">demand</text>
  </g>

  <!-- Séparateur footer -->
  <line x1="60" y1="1000" x2="1140" y2="1000"
        stroke="#8A9BB0" stroke-width="1.5" opacity="0.45"/>

  <!-- Footer : titre -->
  <text x="60" y="1060"
        font-family="'Ubuntu', 'Helvetica Neue', Arial, sans-serif" font-weight="700" font-size="58"
        fill="#C9A84C">Jevons Paradox</text>

  <!-- Footer : tagline -->
  <text x="60" y="1110"
        font-family="'Ubuntu', 'Helvetica Neue', Arial, sans-serif" font-weight="400" font-size="29"
        fill="#F0EDE4">Efficiency increases consumption.</text>

  <!-- Footer : attribution -->
  <text x="60" y="1172"
        font-family="'Ubuntu', 'Helvetica Neue', Arial, sans-serif" font-weight="400" font-size="22"
        fill="#8A9BB0">christophe.heubes.com</text>
  <text x="1140" y="1172" text-anchor="end"
        font-family="'Ubuntu', 'Helvetica Neue', Arial, sans-serif" font-weight="400" font-size="22"
        fill="#8A9BB0">CC BY-NC-SA 4.0</text>

</svg>
